<svg width="287" height="117" viewBox="0 0 287 117" fill="none" xmlns="http://www.w3.org/2000/svg">
<g filter="url(#filter0_d_166_192)">
<rect x="4" y="54.3446" width="276.443" height="58" rx="29" transform="rotate(-6.71916 4 54.3446)" fill="#FF6F3C"/>
</g>
<g filter="url(#filter1_d_166_192)">
<rect x="3" y="46.3446" width="276.443" height="58" rx="29" transform="rotate(-6.71916 3 46.3446)" fill="#1ABC9C"/>
</g>
<g filter="url(#filter2_d_166_192)">
<rect x="1" y="41.3446" width="276.443" height="58" rx="29" transform="rotate(-6.71916 1 41.3446)" fill="#F4F4F4"/>
</g>
<path d="M97.7196 41.3308C98.568 41.3461 99.1651 41.5288 99.511 41.8787C99.8866 42.225 100.113 42.7107 100.191 43.3359C100.447 45.39 99.4639 46.4798 97.2424 46.6051L95.6628 46.6657C93.8878 46.7355 92.1165 46.835 90.349 46.9643C88.6112 47.0899 86.7896 47.2713 84.8843 47.5084L82.8748 47.7585C83.066 52.209 83.1941 56.2743 83.2591 59.9544L90.9232 58.8645C92.0247 58.7274 92.7781 58.8301 93.1836 59.1727C93.6187 59.5115 93.8771 60.0084 93.9586 60.6634C94.0846 61.6755 93.8869 62.5164 93.3656 63.1859C92.8406 63.8256 92.0274 64.2141 90.9259 64.3512L83.2898 65.3016L83.2609 67.2551C83.2471 72.245 82.3428 75.9098 80.548 78.2494C78.783 80.5853 76.1143 81.9755 72.5419 82.4202C70.5175 82.6721 68.6031 82.4721 66.7988 81.8199C64.9907 81.138 63.6069 80.2219 62.6475 79.0716C62.2571 78.6063 62.0174 78.0164 61.9284 77.3019C61.8395 76.5874 61.9254 75.9418 62.1862 75.3652C62.4767 74.7849 62.8751 74.4632 63.3812 74.4002C63.7384 74.3558 64.0956 74.4322 64.4527 74.6296C64.8396 74.8233 65.3436 75.2292 65.9647 75.8472C67.6271 77.5449 69.5151 78.2622 71.6288 77.9991C73.3257 77.7879 74.6546 76.9272 75.6154 75.4169C76.6023 73.8732 77.0742 71.5925 77.0312 68.5747L76.9934 66.0853L74.8499 66.3521C74.1652 66.4373 73.5457 66.3179 72.9915 65.9939C72.467 65.6661 72.1602 65.145 72.0713 64.4306C71.9565 63.5077 72.1075 62.7784 72.5246 62.2428C72.9379 61.6774 73.606 61.3373 74.5289 61.2224C75.3625 61.1187 76.1793 61.0019 76.9794 60.8721C76.929 57.5529 76.8214 53.5304 76.6564 48.8046C73.4783 49.5025 71.2806 50.3051 70.0633 51.2124C68.8461 52.1196 68.3282 53.3027 68.5098 54.7614C68.6358 55.7736 69.0539 56.7041 69.7642 57.5529C69.9761 57.7986 70.0988 58.0554 70.1321 58.3233C70.1988 58.8592 69.9604 59.3725 69.4169 59.8634C68.8697 60.3246 68.2239 60.6014 67.4797 60.6941C66.6759 60.7941 65.9615 60.6412 65.3366 60.2353C64.9423 59.982 64.524 59.4143 64.0816 58.5322C63.6393 57.6501 63.3477 56.6434 63.2069 55.5121C62.7474 51.8206 64.3044 48.906 67.8777 46.7683C71.4808 44.6269 76.9292 43.1022 84.2229 42.1944C89.2839 41.5645 93.7828 41.2766 97.7196 41.3308ZM114.893 66.6737C115.28 66.6255 115.6 66.7671 115.853 67.0984C116.135 67.426 116.316 67.9024 116.393 68.5276C116.542 69.7184 116.374 70.6765 115.89 71.4018C114.955 72.8786 113.546 74.3086 111.662 75.6918C109.808 77.0714 107.735 77.9038 105.443 78.1891C102.317 78.5782 99.7851 78.0317 97.8472 76.5497C95.9094 75.0677 94.757 72.8531 94.3902 69.9058C94.1345 67.8517 94.329 65.8926 94.9737 64.0287C95.6148 62.1351 96.6296 60.5728 98.0182 59.3418C99.4365 58.1072 101.113 57.3694 103.048 57.1286C104.775 56.9137 106.224 57.2624 107.396 58.1746C108.564 59.0571 109.257 60.3766 109.476 62.1331C109.731 64.1872 109.208 66.0512 107.904 67.725C106.627 69.3653 104.286 70.8357 100.88 72.1363C101.795 73.4131 103.294 73.9218 105.378 73.6624C106.718 73.4957 108.179 72.8453 109.761 71.7112C111.369 70.5436 112.704 69.1229 113.765 67.449C114.07 66.9877 114.446 66.7293 114.893 66.6737ZM102.834 61.5993C101.732 61.7364 100.874 62.4932 100.26 63.8697C99.6746 65.2424 99.4952 66.8368 99.7212 68.6528L99.7323 68.7421C101.437 68.1067 102.743 67.3092 103.652 66.3497C104.56 65.3901 104.946 64.3596 104.809 63.2581C104.738 62.6924 104.519 62.2663 104.151 61.9796C103.809 61.6594 103.37 61.5326 102.834 61.5993ZM119.049 76.4956C117.203 76.7253 115.646 76.2389 114.378 75.0363C113.11 73.8338 112.341 72.1459 112.07 69.9726C111.774 67.591 112.045 65.2748 112.883 63.024C113.718 60.7435 114.963 58.8501 116.62 57.344C118.303 55.8043 120.171 54.9067 122.225 54.651C122.88 54.5695 123.329 54.6497 123.57 54.8917C123.838 55.1002 124.087 55.5227 124.318 56.1591C124.928 55.9622 125.576 55.8212 126.26 55.736C127.719 55.5544 128.513 55.9846 128.643 57.0265C128.721 57.6517 128.683 59.168 128.529 61.5755C128.27 65.0843 128.224 67.5085 128.391 68.8482C128.447 69.2947 128.595 69.639 128.837 69.881C129.109 70.1193 129.423 70.2162 129.78 70.1717C130.346 70.1013 130.986 69.6589 131.701 68.8443C132.412 68 133.351 66.674 134.516 64.8662C134.822 64.4049 135.198 64.1465 135.644 64.0909C136.031 64.0427 136.351 64.1843 136.604 64.5156C136.887 64.8432 137.067 65.3196 137.145 65.9448C137.293 67.1356 137.125 68.0937 136.641 68.819C135.609 70.4892 134.473 71.9305 133.234 73.1429C131.994 74.3553 130.734 75.0412 129.454 75.2005C128.471 75.3228 127.523 75.1084 126.608 74.5572C125.719 73.9725 124.993 73.1256 124.432 72.0164C123.195 74.7098 121.401 76.2029 119.049 76.4956ZM120.095 71.7853C120.75 71.7038 121.327 71.2389 121.826 70.3908C122.325 69.5427 122.629 68.4619 122.738 67.1484L123.367 58.7261C122.121 58.9115 121.019 59.5324 120.062 60.5887C119.131 61.6114 118.446 62.906 118.006 64.4723C117.566 66.0387 117.45 67.6554 117.658 69.3225C117.772 70.2454 118.036 70.9079 118.449 71.31C118.892 71.7084 119.44 71.8668 120.095 71.7853ZM153.181 61.9081C153.569 61.8599 153.888 62.0015 154.141 62.3328C154.424 62.6604 154.604 63.1368 154.682 63.762C154.83 64.9528 154.662 65.9109 154.178 66.6362C153.094 68.3734 151.856 69.8425 150.464 71.0437C149.072 72.2449 147.393 72.9677 145.428 73.2123C139.355 73.9682 135.787 70.0741 134.723 61.53C134.56 60.2201 134.44 58.8898 134.363 57.539L132.621 57.7558C131.728 57.8669 131.097 57.7792 130.729 57.4924C130.391 57.202 130.177 56.6996 130.088 55.9851C129.881 54.3179 130.447 53.401 131.786 53.2343L134.332 52.9175C134.43 49.5797 134.832 46.4915 135.537 43.6527C136.241 40.8139 137.223 38.4999 138.482 36.7108C139.77 34.9179 141.263 33.9159 142.96 33.7047C144.21 33.549 145.261 33.9775 146.113 34.9901C146.964 36.0027 147.494 37.3425 147.701 39.0096C148.276 43.624 146.841 47.8839 143.397 51.7892L148.398 51.1667C148.874 51.1074 149.23 51.169 149.464 51.3514C149.698 51.5339 149.851 51.9079 149.921 52.4735C150.177 54.5277 148.623 55.7641 145.259 56.1828L139.811 56.8609C139.936 58.3568 140.051 59.5216 140.155 60.3552C140.54 63.4513 141.168 65.58 142.038 66.7415C142.938 67.8992 144.177 68.3798 145.755 68.1835C147.035 68.0241 148.118 67.4963 149.004 66.6C149.89 65.7037 150.907 64.3981 152.054 62.6834C152.359 62.2221 152.735 61.9637 153.181 61.9081ZM142.288 38.1417C141.841 38.1972 141.405 38.8259 140.981 40.0275C140.582 41.1957 140.253 42.8086 139.996 44.8662C139.764 46.8904 139.634 49.1285 139.607 51.5807C141.174 49.8438 142.273 47.9838 142.903 46.0008C143.559 43.9844 143.791 42.2021 143.598 40.654C143.379 38.8976 142.943 38.0601 142.288 38.1417ZM156.618 71.8195C155.278 71.9863 154.101 71.5131 153.086 70.4C152.096 69.2534 151.487 67.7572 151.257 65.9114C150.979 63.6787 150.874 61.6209 150.942 59.7381C151.007 57.8255 151.251 55.7846 151.677 53.6155C151.863 52.6853 152.2 51.9934 152.688 51.5397C153.176 51.0859 154 50.7868 155.161 50.6423C155.816 50.5608 156.276 50.6094 156.54 50.7882C156.834 50.9632 157.007 51.2591 157.058 51.6759C157.088 51.9141 157.024 52.7383 156.867 54.1484C156.707 55.287 156.593 56.3139 156.525 57.2293C156.319 60.4293 156.281 62.5503 156.41 63.5922C156.488 64.2174 156.618 64.6547 156.8 64.9041C156.979 65.1237 157.232 65.2132 157.559 65.1724C158.006 65.1168 158.501 64.6017 159.045 63.6271C159.618 62.6488 160.164 61.2053 160.682 59.2967C161.23 57.3843 161.697 55.0589 162.081 52.3204C162.208 51.3977 162.486 50.7132 162.914 50.2669C163.372 49.8169 164.092 49.5307 165.075 49.4084C165.759 49.3232 166.247 49.3532 166.537 49.4985C166.823 49.614 166.995 49.895 167.05 50.3416C167.143 51.0859 167.024 53.1714 166.695 56.5983C166.336 60.5127 166.212 62.9164 166.323 63.8095C166.393 64.3752 166.568 64.8069 166.847 65.1047C167.122 65.3728 167.453 65.4827 167.84 65.4346C168.436 65.3605 169.091 64.9161 169.806 64.1016C170.547 63.2536 171.5 61.9257 172.666 60.1179C172.971 59.6566 173.347 59.3982 173.793 59.3426C174.18 59.2945 174.5 59.436 174.753 59.7673C175.036 60.0949 175.216 60.5713 175.294 61.1965C175.442 62.3873 175.274 63.3454 174.79 64.0707C173.706 65.8079 172.483 67.2752 171.121 68.4727C169.788 69.6664 168.184 70.38 166.308 70.6134C164.879 70.7913 163.754 70.3721 162.932 69.3558C162.14 68.3358 161.62 66.8285 161.372 64.8339C161.117 66.9213 160.553 68.5787 159.678 69.8062C158.799 71.0039 157.779 71.675 156.618 71.8195ZM175.861 69.4245C174.729 69.5653 173.851 69.0699 173.227 67.9384C172.632 66.8032 172.172 64.9257 171.846 62.3059C171.364 58.4358 171.457 54.6906 172.125 51.0703C172.286 50.1737 172.639 49.4948 173.187 49.0336C173.76 48.539 174.597 48.2232 175.699 48.0861C176.294 48.012 176.72 48.0345 176.977 48.1537C177.234 48.273 177.388 48.5409 177.44 48.9577C177.499 49.4341 177.409 50.5336 177.17 52.2563C177.021 53.4842 176.912 54.5558 176.845 55.4711C176.777 56.3864 176.766 57.5065 176.81 58.8312C177.473 56.1487 178.315 53.9276 179.336 52.1681C180.356 50.4086 181.405 49.1142 182.48 48.285C183.586 47.4521 184.63 46.9745 185.612 46.8522C187.547 46.6114 188.635 47.4585 188.876 49.3935C188.924 49.7805 188.907 50.735 188.825 52.2568C188.735 53.4773 188.708 54.2364 188.745 54.5341C188.875 55.576 189.312 56.0507 190.056 55.9581C190.89 55.8543 191.88 55.066 193.027 53.593C193.366 53.1579 193.743 52.9143 194.16 52.8625C194.547 52.8143 194.867 52.9559 195.12 53.2872C195.399 53.585 195.574 54.0167 195.644 54.5824C195.781 55.6839 195.591 56.5843 195.073 57.2835C194.347 58.2506 193.457 59.1172 192.404 59.8831C191.376 60.6156 190.238 61.0597 188.987 61.2153C187.409 61.4117 186.154 61.1599 185.22 60.4598C184.316 59.7561 183.779 58.7195 183.609 57.3501C183.553 56.9035 183.542 56.4514 183.576 55.9937C183.561 55.3909 183.541 54.9853 183.515 54.7769C183.456 54.3006 183.262 54.0828 182.935 54.1236C182.488 54.1792 181.956 54.7594 181.338 55.8642C180.746 56.9355 180.194 58.3343 179.683 60.0606C179.173 61.7869 178.807 63.5859 178.587 65.4574C178.433 66.8974 178.165 67.8982 177.781 68.4599C177.424 68.9881 176.784 69.3096 175.861 69.4245ZM211.661 54.6294C212.048 54.5813 212.368 54.7228 212.621 55.0541C212.903 55.3817 213.084 55.8581 213.161 56.4833C213.31 57.6741 213.142 58.6322 212.658 59.3575C211.723 60.8343 210.314 62.2643 208.43 63.6475C206.576 65.0271 204.503 65.8595 202.211 66.1448C199.085 66.5339 196.553 65.9874 194.615 64.5054C192.677 63.0234 191.525 60.8088 191.158 57.8615C190.902 55.8074 191.097 53.8483 191.742 51.9844C192.383 50.0908 193.398 48.5285 194.786 47.2975C196.204 46.0629 197.881 45.3251 199.816 45.0843C201.543 44.8694 202.992 45.2181 204.164 46.1303C205.332 47.0128 206.025 48.3323 206.244 50.0888C206.499 52.1429 205.975 54.0069 204.672 55.6807C203.395 57.321 201.054 58.7914 197.648 60.092C198.563 61.3688 200.062 61.8775 202.146 61.6181C203.486 61.4514 204.947 60.801 206.529 59.6669C208.137 58.4993 209.472 57.0786 210.533 55.4047C210.838 54.9434 211.214 54.685 211.661 54.6294ZM199.602 49.555C198.5 49.6921 197.642 50.4489 197.028 51.8254C196.443 53.1981 196.263 54.7925 196.489 56.6085L196.5 56.6978C198.205 56.0624 199.511 55.2649 200.42 54.3054C201.328 53.3458 201.714 52.3153 201.577 51.2138C201.506 50.6481 201.287 50.222 200.919 49.9353C200.577 49.6151 200.138 49.4883 199.602 49.555ZM218.971 65.0564C217.423 65.2491 216.187 65.0401 215.265 64.4293C214.372 63.8149 213.87 63.0611 213.759 62.168C213.663 61.394 213.862 60.6889 214.357 60.0529C214.853 59.4169 215.651 59.0303 216.753 58.8932C217.14 58.845 217.592 58.8341 218.109 58.8604C218.652 58.8533 219.06 58.8479 219.331 58.8443C219.205 58.074 218.936 57.3669 218.523 56.7229C218.14 56.0752 217.672 55.4685 217.117 54.9026C216.56 54.3069 216.043 53.7969 215.567 53.3724C214.862 55.2437 214.121 56.8173 213.343 58.0932C212.594 59.3654 211.749 60.5892 210.807 61.7646C210.338 62.3671 209.805 62.7055 209.21 62.7796C208.733 62.8389 208.326 62.7233 207.988 62.4329C207.645 62.1127 207.443 61.6995 207.38 61.1934C207.306 60.598 207.446 60.0214 207.799 59.4634L208.291 58.6766C209.676 56.4485 210.704 54.6276 211.375 53.2139C211.803 52.2839 212.211 51.1901 212.599 49.9326C213.016 48.6714 213.544 46.9581 214.181 44.7928C214.584 43.4125 215.678 42.6112 217.465 42.3889C218.298 42.2851 218.888 42.2873 219.234 42.3954C219.58 42.5035 219.773 42.7213 219.814 43.0487C219.836 43.2274 219.812 43.5176 219.741 43.9194C219.67 44.3213 219.555 44.7287 219.394 45.1416C218.992 46.28 218.837 47.2214 218.93 47.9656C218.985 48.4122 219.195 48.8849 219.56 49.3837C219.954 49.8788 220.528 50.4875 221.283 51.2098C222.392 52.3415 223.239 53.3243 223.827 54.1582C224.44 54.9585 224.812 55.8797 224.942 56.9216C225.097 58.172 224.948 59.3998 224.493 60.6052C224.065 61.7771 223.372 62.7703 222.415 63.5847C221.459 64.3991 220.31 64.8897 218.971 65.0564Z" fill="#2C2C2C"/>
<defs>
<filter id="filter0_d_166_192" x="3.1911" y="25.191" width="282.948" height="91.5641" filterUnits="userSpaceOnUse" color-interpolation-filters="sRGB">
<feFlood flood-opacity="0" result="BackgroundImageFix"/>
<feColorMatrix in="SourceAlpha" type="matrix" values="0 0 0 0 0 0 0 0 0 0 0 0 0 0 0 0 0 0 127 0" result="hardAlpha"/>
<feOffset dy="4"/>
<feGaussianBlur stdDeviation="2"/>
<feComposite in2="hardAlpha" operator="out"/>
<feColorMatrix type="matrix" values="0 0 0 0 0 0 0 0 0 0 0 0 0 0 0 0 0 0 0.25 0"/>
<feBlend mode="normal" in2="BackgroundImageFix" result="effect1_dropShadow_166_192"/>
<feBlend mode="normal" in="SourceGraphic" in2="effect1_dropShadow_166_192" result="shape"/>
</filter>
<filter id="filter1_d_166_192" x="2.1911" y="17.191" width="282.948" height="91.5641" filterUnits="userSpaceOnUse" color-interpolation-filters="sRGB">
<feFlood flood-opacity="0" result="BackgroundImageFix"/>
<feColorMatrix in="SourceAlpha" type="matrix" values="0 0 0 0 0 0 0 0 0 0 0 0 0 0 0 0 0 0 127 0" result="hardAlpha"/>
<feOffset dy="4"/>
<feGaussianBlur stdDeviation="2"/>
<feComposite in2="hardAlpha" operator="out"/>
<feColorMatrix type="matrix" values="0 0 0 0 0 0 0 0 0 0 0 0 0 0 0 0 0 0 0.25 0"/>
<feBlend mode="normal" in2="BackgroundImageFix" result="effect1_dropShadow_166_192"/>
<feBlend mode="normal" in="SourceGraphic" in2="effect1_dropShadow_166_192" result="shape"/>
</filter>
<filter id="filter2_d_166_192" x="0.191101" y="12.191" width="282.948" height="91.5641" filterUnits="userSpaceOnUse" color-interpolation-filters="sRGB">
<feFlood flood-opacity="0" result="BackgroundImageFix"/>
<feColorMatrix in="SourceAlpha" type="matrix" values="0 0 0 0 0 0 0 0 0 0 0 0 0 0 0 0 0 0 127 0" result="hardAlpha"/>
<feOffset dy="4"/>
<feGaussianBlur stdDeviation="2"/>
<feComposite in2="hardAlpha" operator="out"/>
<feColorMatrix type="matrix" values="0 0 0 0 0 0 0 0 0 0 0 0 0 0 0 0 0 0 0.25 0"/>
<feBlend mode="normal" in2="BackgroundImageFix" result="effect1_dropShadow_166_192"/>
<feBlend mode="normal" in="SourceGraphic" in2="effect1_dropShadow_166_192" result="shape"/>
</filter>
</defs>
</svg>
