<svg width="1728" height="439" viewBox="0 0 1728 439" fill="none" xmlns="http://www.w3.org/2000/svg">
<g filter="url(#filter0_d_174_189)">
<path d="M480.827 141.8C480.827 153.133 477.893 163.533 472.027 173C466.16 182.467 457.627 190.2 446.427 196.2C435.227 202.2 421.893 205.733 406.427 206.8L397.827 255C394.493 273.533 385.427 282.8 370.627 282.8C362.493 282.8 354.96 280.4 348.027 275.6C341.227 270.8 335.76 263.467 331.627 253.6C327.493 243.733 325.427 231.6 325.427 217.2C325.427 190.133 329.76 167.2 338.427 148.4C347.227 129.467 358.96 115.333 373.627 106C388.427 96.5333 404.693 91.8 422.427 91.8C434.96 91.8 445.56 94 454.227 98.4C463.027 102.8 469.627 108.8 474.027 116.4C478.56 123.867 480.827 132.333 480.827 141.8ZM410.027 186.2C437.36 182.733 451.027 168.533 451.027 143.6C451.027 134.8 448.093 127.667 442.227 122.2C436.493 116.6 427.56 113.8 415.427 113.8C401.693 113.8 389.693 118.133 379.427 126.8C369.293 135.467 361.427 147.533 355.827 163C350.36 178.333 347.627 195.867 347.627 215.6C347.627 223.867 348.427 231.2 350.027 237.6C351.76 244 353.893 249 356.427 252.6C359.093 256.067 361.627 257.8 364.027 257.8C367.36 257.8 369.893 253.2 371.627 244L378.227 206.2C373.027 205.4 370.76 205.067 371.427 205.2C367.427 204.533 364.827 203.333 363.627 201.6C362.427 199.733 361.827 197.4 361.827 194.6C361.827 191.667 362.627 189.333 364.227 187.6C365.96 185.867 368.293 185 371.227 185C372.56 185 373.56 185.067 374.227 185.2C377.427 185.733 379.893 186.067 381.627 186.2C383.36 175.8 385.827 161.867 389.027 144.4C389.827 139.867 391.627 136.667 394.427 134.8C397.36 132.8 400.76 131.8 404.627 131.8C409.027 131.8 412.16 132.667 414.027 134.4C416.027 136 417.027 138.6 417.027 142.2C417.027 144.333 416.893 146.067 416.627 147.4L410.027 186.2ZM653.364 216.4C655.097 216.4 656.431 217.2 657.364 218.8C658.431 220.4 658.964 222.6 658.964 225.4C658.964 230.6 657.697 234.733 655.164 237.8C648.764 245.533 642.297 251.533 635.764 255.8C629.231 259.933 621.497 262 612.564 262C603.897 262 596.497 259.667 590.364 255C584.364 250.333 578.631 242.333 573.164 231C568.764 221.933 565.297 215.267 562.764 211C560.231 206.6 557.697 203.467 555.164 201.6C552.764 199.733 549.764 198.6 546.164 198.2C545.631 201 544.097 209.8 541.564 224.6C540.497 231.267 539.831 235.333 539.564 236.8C538.231 244.933 535.564 251.2 531.564 255.6C527.564 259.867 521.497 262 513.364 262C504.431 262 496.497 259.4 489.564 254.2C482.764 248.867 477.497 241.533 473.764 232.2C470.031 222.733 468.164 212 468.164 200C468.164 177.6 472.031 158.267 479.764 142C487.631 125.733 498.564 113.333 512.564 104.8C526.697 96.1333 542.964 91.8 561.364 91.8C574.164 91.8 584.897 93.7333 593.564 97.6C602.231 101.467 608.631 106.8 612.764 113.6C617.031 120.4 619.164 128.067 619.164 136.6C619.164 144.067 617.364 151.4 613.764 158.6C610.297 165.667 605.031 171.933 597.964 177.4C590.897 182.867 582.297 186.933 572.164 189.6C578.564 191.333 583.497 194.133 586.964 198C590.431 201.867 593.897 207.533 597.364 215C601.097 223 604.764 228.867 608.364 232.6C612.097 236.333 616.364 238.2 621.164 238.2C625.431 238.2 629.497 236.8 633.364 234C637.231 231.067 642.097 226.133 647.964 219.2C649.564 217.333 651.364 216.4 653.364 216.4ZM518.564 198C514.031 198 510.897 196.933 509.164 194.8C507.564 192.667 506.764 190.267 506.764 187.6C506.764 184.4 507.764 181.867 509.764 180C511.897 178.133 514.297 177.2 516.964 177.2H521.964C524.097 164.133 526.097 152.867 527.964 143.4C529.697 134.733 535.297 130.4 544.764 130.4C552.364 130.4 556.164 133.8 556.164 140.6C556.164 142.067 556.097 143.2 555.964 144L549.964 177.2C557.164 176.8 563.697 175.067 569.564 172C575.564 168.933 580.297 164.667 583.764 159.2C587.364 153.733 589.164 147.533 589.164 140.6C589.164 132.2 586.297 125.6 580.564 120.8C574.831 116 566.431 113.6 555.364 113.6C542.297 113.6 530.831 116.867 520.964 123.4C511.231 129.8 503.631 139.4 498.164 152.2C492.697 164.867 489.964 180.333 489.964 198.6C489.964 207.133 490.831 214.467 492.564 220.6C494.297 226.733 496.431 231.333 498.964 234.4C501.497 237.467 503.897 239 506.164 239C507.897 239 509.297 238.133 510.364 236.4C511.564 234.667 512.497 231.867 513.164 228L518.564 198ZM689.141 262C677.274 262 666.541 259.333 656.941 254C647.474 248.667 639.941 240.867 634.341 230.6C628.741 220.2 625.941 207.8 625.941 193.4C625.941 173.133 629.607 155.267 636.941 139.8C644.407 124.333 654.474 112.4 667.141 104C679.941 95.6 694.074 91.4 709.541 91.4C721.407 91.4 732.074 94.0667 741.541 99.4C751.141 104.733 758.741 112.6 764.341 123C769.941 133.267 772.741 145.6 772.741 160C772.741 180.267 769.007 198.133 761.541 213.6C754.207 229.067 744.141 241 731.341 249.4C718.674 257.8 704.607 262 689.141 262ZM691.141 238.4C701.541 238.4 710.674 235.2 718.541 228.8C726.541 222.4 732.674 213.533 736.941 202.2C741.207 190.733 743.341 177.8 743.341 163.4C743.341 147.533 740.007 135.533 733.341 127.4C726.674 119.133 718.074 115 707.541 115C697.274 115 688.207 118.2 680.341 124.6C672.474 130.867 666.341 139.733 661.941 151.2C657.541 162.533 655.341 175.467 655.341 190C655.341 205.867 658.674 217.933 665.341 226.2C672.007 234.333 680.607 238.4 691.141 238.4ZM818.022 262C810.289 262 801.555 261.333 791.822 260C786.489 259.333 782.822 257.933 780.822 255.8C778.822 253.667 777.955 250.2 778.222 245.4C779.155 232.2 781.355 215.933 784.822 196.6C788.289 177.133 792.489 158.4 797.422 140.4C798.355 137.067 800.222 134.733 803.022 133.4C805.822 132.067 809.489 131.4 814.022 131.4C822.155 131.4 826.222 133.667 826.222 138.2C826.222 140.067 825.822 142.2 825.022 144.6C821.555 155.267 818.089 169.6 814.622 187.6C811.155 205.467 808.689 222.533 807.222 238.8C811.222 239.2 815.755 239.4 820.822 239.4C844.155 239.4 861.555 232.333 873.022 218.2C884.622 204.067 890.422 185.2 890.422 161.6C890.422 145.733 885.889 133.467 876.822 124.8C867.755 116.133 854.955 111.8 838.422 111.8C827.755 111.8 817.155 113.467 806.622 116.8C796.222 120.133 786.822 124.533 778.422 130C776.689 131.2 774.822 131.8 772.822 131.8C770.555 131.8 768.755 130.867 767.422 129C766.089 127 765.422 124.6 765.422 121.8C765.422 118.6 765.955 116 767.022 114C768.089 111.867 769.889 109.933 772.422 108.2C781.622 101.933 792.422 97.2 804.822 94C817.222 90.6667 829.155 89 840.622 89C856.889 89 870.955 91.8667 882.822 97.6C894.689 103.2 903.822 111.467 910.222 122.4C916.622 133.333 919.822 146.533 919.822 162C919.822 182.133 915.822 199.733 907.822 214.8C899.822 229.733 888.155 241.333 872.822 249.6C857.489 257.867 839.222 262 818.022 262ZM970.009 262C958.809 262 950.343 258.933 944.609 252.8C938.876 246.533 936.009 238.2 936.009 227.8C936.009 221.933 936.876 214.8 938.609 206.4L951.009 149.2C951.276 148.133 951.876 145.2 952.809 140.4C953.876 135.6 954.409 130.4 954.409 124.8C954.409 121.6 953.743 119.2 952.409 117.6C951.209 116 949.543 115.2 947.409 115.2C943.409 115.2 938.743 117.133 933.409 121C928.076 124.733 922.476 130.533 916.609 138.4C914.743 140.933 912.676 142.2 910.409 142.2C908.543 142.2 906.876 141.333 905.409 139.6C904.076 137.733 903.409 135.667 903.409 133.4C903.409 129.267 905.276 124.6 909.009 119.4C922.609 100.733 938.543 91.4 956.809 91.4C964.943 91.4 971.276 93.8667 975.809 98.8C980.476 103.733 982.809 111 982.809 120.6C982.809 127.4 982.343 133.667 981.409 139.4C980.476 145.133 978.876 152.933 976.609 162.8L968.409 199.4C968.143 200.6 967.676 202.733 967.009 205.8C966.343 208.867 965.809 211.8 965.409 214.6C965.009 217.267 964.809 219.933 964.809 222.6C964.809 226.867 966.009 230.267 968.409 232.8C970.809 235.333 974.209 236.6 978.609 236.6C986.609 236.6 994.676 232.333 1002.81 223.8C1011.08 215.267 1018.68 201.533 1025.61 182.6C1032.68 163.533 1038.14 139.2 1042.01 109.6C1042.94 102.8 1044.28 98.0667 1046.01 95.4C1047.88 92.7333 1051.41 91.4 1056.61 91.4C1061.28 91.4 1064.74 92.8 1067.01 95.6C1069.28 98.4 1070.41 102.933 1070.41 109.2C1070.41 112.8 1069.94 117.533 1069.01 123.4C1068.21 129.267 1066.94 137.467 1065.21 148C1061.61 168.4 1058.74 187.133 1056.61 204.2C1055.54 211.933 1055.01 217.667 1055.01 221.4C1055.01 226.867 1056.21 231.067 1058.61 234C1061.14 236.8 1064.48 238.2 1068.61 238.2C1073.01 238.2 1077.28 236.733 1081.41 233.8C1085.68 230.867 1090.68 226 1096.41 219.2C1098.01 217.333 1099.81 216.4 1101.81 216.4C1103.54 216.4 1104.88 217.2 1105.81 218.8C1106.88 220.4 1107.41 222.6 1107.41 225.4C1107.41 230.6 1106.14 234.733 1103.61 237.8C1096.68 246.2 1089.81 252.333 1083.01 256.2C1076.21 260.067 1069.08 262 1061.61 262C1050.54 262 1042.08 259.2 1036.21 253.6C1030.34 247.867 1027.41 240.467 1027.41 231.4C1027.41 226.333 1028.48 216.467 1030.61 201.8C1023.94 221.4 1015.48 236.333 1005.21 246.6C995.076 256.867 983.343 262 970.009 262ZM1152.14 262C1136.27 262 1122.47 259.133 1110.74 253.4C1099.01 247.533 1090.01 239.267 1083.74 228.6C1077.47 217.933 1074.34 205.533 1074.34 191.4C1074.34 171.8 1078.01 154.4 1085.34 139.2C1092.81 124 1102.87 112.267 1115.54 104C1128.21 95.6 1142.27 91.4 1157.74 91.4C1172.14 91.4 1183.07 95.1333 1190.54 102.6C1198.01 109.933 1201.74 119.667 1201.74 131.8C1201.74 139.933 1200.27 146.467 1197.34 151.4C1194.54 156.333 1190.47 158.8 1185.14 158.8C1181.41 158.8 1178.47 157.933 1176.34 156.2C1174.21 154.467 1173.14 151.933 1173.14 148.6C1173.14 147.4 1173.41 145.2 1173.94 142C1174.74 138 1175.14 134.8 1175.14 132.4C1175.14 120.267 1168.67 114.2 1155.74 114.2C1146.94 114.2 1138.54 117.067 1130.54 122.8C1122.54 128.533 1116.07 137 1111.14 148.2C1106.21 159.267 1103.74 172.467 1103.74 187.8C1103.74 203.8 1108.21 216.2 1117.14 225C1126.07 233.667 1139.27 238 1156.74 238C1165.41 238 1174.14 236.933 1182.94 234.8C1191.87 232.533 1201.74 229.133 1212.54 224.6C1214.54 223.8 1216.21 223.4 1217.54 223.4C1219.67 223.4 1221.27 224.2 1222.34 225.8C1223.41 227.4 1223.94 229.467 1223.94 232C1223.94 240.133 1219.54 246.133 1210.74 250C1201.27 254.133 1191.41 257.2 1181.14 259.2C1171.01 261.067 1161.34 262 1152.14 262ZM1346.85 95C1350.98 95.8 1354.05 97.2 1356.05 99.2C1358.18 101.2 1359.25 103.533 1359.25 106.2C1359.25 110.6 1357.98 113.8 1355.45 115.8C1353.05 117.8 1349.18 118.6 1343.85 118.2C1331.85 117.267 1322.45 116.667 1315.65 116.4C1308.98 116 1300.18 115.733 1289.25 115.6C1284.32 140.133 1279.78 164.8 1275.65 189.6C1274.18 198.667 1272.65 209.2 1271.05 221.2C1269.45 233.067 1268.38 242.667 1267.85 250C1267.58 253.867 1265.98 256.867 1263.05 259C1260.12 261 1256.58 262 1252.45 262C1248.05 262 1244.65 260.933 1242.25 258.8C1239.85 256.667 1238.65 253.867 1238.65 250.4C1238.65 247.2 1239.12 241.933 1240.05 234.6C1241.12 227.133 1242.32 219.333 1243.65 211.2C1245.12 203.067 1246.25 196 1247.05 190C1248.52 179.867 1250.18 169.8 1252.05 159.8C1253.92 149.8 1255.78 140.333 1257.65 131.4C1258.05 129.4 1258.52 127.133 1259.05 124.6C1259.58 121.933 1260.18 119 1260.85 115.8C1247.78 116.2 1237.52 117.267 1230.05 119C1222.58 120.733 1217.25 123.2 1214.05 126.4C1210.98 129.467 1209.45 133.467 1209.45 138.4C1209.45 142.933 1210.78 147.267 1213.45 151.4C1213.98 152.333 1214.25 153.333 1214.25 154.4C1214.25 156.933 1212.72 159.333 1209.65 161.6C1206.72 163.733 1203.65 164.8 1200.45 164.8C1198.18 164.8 1196.32 164.133 1194.85 162.8C1192.18 160.533 1189.98 157.333 1188.25 153.2C1186.52 148.933 1185.65 144.133 1185.65 138.8C1185.65 127.467 1189.32 118.4 1196.65 111.6C1204.12 104.667 1215.38 99.6 1230.45 96.4C1245.65 93.2 1265.12 91.6 1288.85 91.6C1303.52 91.6 1315.18 91.8667 1323.85 92.4C1332.65 92.9333 1340.32 93.8 1346.85 95ZM1363.5 262.6C1345.77 262.6 1331.57 259.267 1320.9 252.6C1310.23 245.8 1304.9 235.467 1304.9 221.6C1304.9 214.267 1306.17 208.667 1308.7 204.8C1311.23 200.933 1314.97 199 1319.9 199C1323.5 199 1326.43 199.933 1328.7 201.8C1330.97 203.667 1332.1 206.067 1332.1 209C1332.1 211.667 1331.9 214 1331.5 216C1331.5 216.533 1331.37 217.467 1331.1 218.8C1330.97 220.133 1330.9 221.533 1330.9 223C1330.9 229 1333.9 233.467 1339.9 236.4C1346.03 239.333 1354.57 240.8 1365.5 240.8C1376.83 240.8 1385.7 238.8 1392.1 234.8C1398.5 230.667 1401.7 224.933 1401.7 217.6C1401.7 213.067 1400.23 209.2 1397.3 206C1394.37 202.667 1390.7 199.933 1386.3 197.8C1381.9 195.533 1375.7 192.8 1367.7 189.6C1357.43 185.6 1349.03 181.8 1342.5 178.2C1336.1 174.6 1330.57 169.733 1325.9 163.6C1321.37 157.333 1319.1 149.6 1319.1 140.4C1319.1 130.8 1321.63 122.267 1326.7 114.8C1331.9 107.333 1339.3 101.533 1348.9 97.4C1358.63 93.2667 1370.03 91.2 1383.1 91.2C1392.83 91.2 1401.77 92.6667 1409.9 95.6C1418.03 98.4 1424.5 102.733 1429.3 108.6C1434.23 114.467 1436.7 121.667 1436.7 130.2C1436.7 138.6 1435.43 144.933 1432.9 149.2C1430.37 153.467 1426.63 155.6 1421.7 155.6C1418.23 155.6 1415.3 154.533 1412.9 152.4C1410.63 150.267 1409.5 147.733 1409.5 144.8C1409.5 142.267 1409.7 139.933 1410.1 137.8C1410.5 133.8 1410.7 131.267 1410.7 130.2C1410.7 124.6 1407.97 120.333 1402.5 117.4C1397.03 114.467 1390.23 113 1382.1 113C1370.63 113 1361.83 115.133 1355.7 119.4C1349.7 123.533 1346.7 129.4 1346.7 137C1346.7 142.067 1348.23 146.4 1351.3 150C1354.5 153.6 1358.43 156.6 1363.1 159C1367.77 161.4 1374.3 164.267 1382.7 167.6C1392.83 171.733 1400.97 175.467 1407.1 178.8C1413.23 182.133 1418.43 186.667 1422.7 192.4C1427.1 198.133 1429.3 205.2 1429.3 213.6C1429.3 229.333 1423.3 241.467 1411.3 250C1399.43 258.4 1383.5 262.6 1363.5 262.6Z" fill="#F4F4F4"/>
</g>
<path d="M1377.83 74.9822C1418.07 70.8833 1432.61 83.9253 1445.65 110.756" stroke="white" stroke-width="18"/>
<path d="M1383.37 73.9193C1418.27 72.9876 1430.98 83.8517 1442.5 105.268" stroke="white" stroke-width="10"/>
<path d="M1383.37 73.9193C1418.27 72.9876 1430.98 83.8517 1442.5 105.268" stroke="#1ABC9C" stroke-width="10"/>
<path d="M1283.6 269.627C1304.47 289.377 1318.25 293.476 1347.69 293.476" stroke="white" stroke-width="22"/>
<path d="M1287.56 274.844C1306.59 288.036 1318.5 291.457 1343.3 293.586" stroke="white" stroke-width="10"/>
<path d="M1287.56 274.844C1306.59 288.036 1318.5 291.457 1343.3 293.586" stroke="#FF6F3C" stroke-width="10"/>
<path d="M441.1 217.389C441.1 234.158 447.808 255.771 460.105 266.577" stroke="white" stroke-width="22"/>
<path d="M443.606 221.115C443.268 235.391 448.198 253.658 457.817 262.615" stroke="white" stroke-width="10"/>
<path d="M443.606 221.115C443.268 235.391 448.198 253.658 457.817 262.615" stroke="#FFD166" stroke-width="10"/>
<path d="M832.81 69.0907C863.566 64.9538 877.818 69.6615 896.904 92.9395" stroke="white" stroke-width="22"/>
<path d="M837.084 69.1609C864.524 66.0373 877.317 70.1612 894.649 89.9584" stroke="white" stroke-width="10"/>
<path d="M837.084 69.1609C864.524 66.0373 877.317 70.1612 894.649 89.9584" stroke="#FFD166" stroke-width="10"/>
<path d="M297.316 293.836C315.639 314.233 329.736 319.233 361.41 317.685" stroke="white" stroke-width="22"/>
<path d="M300.492 298.68C317.498 314.372 330.136 318.614 357.995 318.78" stroke="white" stroke-width="10"/>
<path d="M300.492 298.68C317.498 314.372 330.136 318.614 357.995 318.78" stroke="#FF6F3C" stroke-width="10"/>
<defs>
<filter id="filter0_d_174_189" x="321.427" y="89" width="1119.27" height="201.8" filterUnits="userSpaceOnUse" color-interpolation-filters="sRGB">
<feFlood flood-opacity="0" result="BackgroundImageFix"/>
<feColorMatrix in="SourceAlpha" type="matrix" values="0 0 0 0 0 0 0 0 0 0 0 0 0 0 0 0 0 0 127 0" result="hardAlpha"/>
<feOffset dy="4"/>
<feGaussianBlur stdDeviation="2"/>
<feComposite in2="hardAlpha" operator="out"/>
<feColorMatrix type="matrix" values="0 0 0 0 0 0 0 0 0 0 0 0 0 0 0 0 0 0 0.7 0"/>
<feBlend mode="normal" in2="BackgroundImageFix" result="effect1_dropShadow_174_189"/>
<feBlend mode="normal" in="SourceGraphic" in2="effect1_dropShadow_174_189" result="shape"/>
</filter>
</defs>
</svg>
