<svg width="530" height="136" viewBox="0 0 530 136" fill="none" xmlns="http://www.w3.org/2000/svg">
<path d="M468.782 88.9878C478.577 104.437 476.24 112.951 468.025 123.651" stroke="white" stroke-width="10"/>
<path d="M470.334 91.0166C477.765 104.941 475.941 112.278 469.608 121.266" stroke="white" stroke-width="5"/>
<path d="M470.334 91.0166C477.765 104.941 475.941 112.278 469.608 121.266" stroke="#1ABC9C" stroke-width="5"/>
<path d="M375.293 21.3191C363.014 16.7158 356.488 17.4381 344.108 22.661" stroke="white" stroke-width="10"/>
<path d="M372.703 19.8274C362.359 17.6563 356.741 18.3314 345.935 21.8358" stroke="white" stroke-width="5"/>
<path d="M372.703 19.8274C362.359 17.6563 356.741 18.3314 345.935 21.8358" stroke="#FF6F3C" stroke-width="5"/>
<path d="M176.299 5.25356C192.007 12.0107 197.409 18.2729 199.835 34.6809" stroke="white" stroke-width="10"/>
<path d="M178.299 6.49746C192.152 12.7942 197.03 18.3672 199.613 32.6332" stroke="white" stroke-width="5"/>
<path d="M178.299 6.49746C192.152 12.7942 197.03 18.3672 199.613 32.6332" stroke="#FFD166" stroke-width="5"/>
<path d="M63.9565 102.686C71.1565 119.145 78.8968 125.156 98.9171 130.711" stroke="white" stroke-width="10"/>
<path d="M64.9353 106.353C72.2844 119.614 79.2728 124.853 96.5679 130.69" stroke="white" stroke-width="5"/>
<path d="M64.9353 106.353C72.2844 119.614 79.2728 124.853 96.5679 130.69" stroke="#FF6F3C" stroke-width="5"/>
<g filter="url(#filter0_d_85_6955)">
<path d="M95.425 113.289C91.009 113.289 87.009 112.201 83.425 110.025C79.905 107.849 77.121 104.713 75.073 100.617C73.025 96.4567 72.001 91.5607 72.001 85.9287C72.001 76.2007 74.081 67.2087 78.241 58.9527C82.401 50.6327 88.545 43.9767 96.673 38.9847C104.801 33.9287 114.561 31.4007 125.953 31.4007C128.897 31.4007 132.033 31.6247 135.361 32.0727C138.753 32.5207 141.825 33.1927 144.577 34.0887C146.369 34.6007 147.265 35.8807 147.265 37.9287C147.265 39.5927 146.625 41.1607 145.345 42.6327C144.129 44.1047 142.689 44.8407 141.025 44.8407C140.513 44.8407 140.129 44.8087 139.873 44.7447C136.545 43.9767 133.697 43.4327 131.329 43.1127C128.961 42.7287 126.465 42.5367 123.841 42.5367C115.713 42.5367 108.801 44.5207 103.105 48.4887C97.409 52.3927 93.153 57.5767 90.337 64.0407C87.521 70.5047 86.113 77.4807 86.113 84.9687C86.113 90.4087 87.169 94.6327 89.281 97.6407C91.457 100.585 94.273 102.057 97.729 102.057C101.633 102.057 105.057 100.457 108.001 97.2567C110.945 94.0567 113.633 88.8727 116.065 81.7047C118.497 74.5367 120.897 64.8087 123.265 52.5207C123.649 50.7287 124.417 49.5127 125.569 48.8727C126.721 48.2327 128.257 47.9127 130.177 47.9127C134.721 47.9127 136.993 49.3847 136.993 52.3287C136.993 52.8407 136.897 53.4807 136.705 54.2487C135.041 60.4567 133.505 67.3367 132.097 74.8887C130.753 82.3767 130.081 88.0727 130.081 91.9767C130.081 95.4327 130.593 97.9607 131.617 99.5607C132.641 101.097 134.209 101.865 136.321 101.865C138.369 101.865 140.321 101.193 142.177 99.8487C144.033 98.4407 146.369 96.0727 149.185 92.7447C149.953 91.8487 150.817 91.4007 151.777 91.4007C152.609 91.4007 153.249 91.7847 153.697 92.5527C154.209 93.3207 154.465 94.3767 154.465 95.7207C154.465 98.2167 153.857 100.201 152.641 101.673C149.505 105.449 146.433 108.329 143.425 110.313C140.417 112.297 136.737 113.289 132.385 113.289C127.905 113.289 124.289 112.009 121.537 109.449C118.785 106.825 117.057 103.145 116.353 98.4087C111.617 108.329 104.641 113.289 95.425 113.289ZM197.774 83.3367C198.606 83.3367 199.246 83.7527 199.694 84.5847C200.142 85.4167 200.366 86.4727 200.366 87.7527C200.366 89.3527 200.142 90.6007 199.694 91.4967C199.246 92.3287 198.542 92.9047 197.582 93.2247C193.742 94.5687 189.518 95.3367 184.91 95.5287C183.63 100.841 181.198 105.129 177.614 108.393C174.094 111.657 170.19 113.289 165.902 113.289C159.438 113.289 154.734 110.825 151.79 105.897C148.846 100.969 147.374 93.8327 147.374 84.4887C147.374 76.2327 148.398 67.2727 150.446 57.6087C152.494 47.8807 155.47 39.6247 159.374 32.8407C163.342 25.9927 168.046 22.5687 173.486 22.5687C176.43 22.5687 178.798 23.8487 180.59 26.4087C182.382 28.9047 183.278 32.1687 183.278 36.2007C183.278 41.4487 182.286 46.6647 180.302 51.8487C178.318 57.0327 175.022 62.4727 170.414 68.1687C174.702 68.4887 178.19 70.2807 180.878 73.5447C183.566 76.7447 185.166 80.7127 185.678 85.4487C188.686 85.2567 192.27 84.6167 196.43 83.5287C196.814 83.4007 197.262 83.3367 197.774 83.3367ZM171.278 32.0727C169.998 32.0727 168.59 33.9927 167.054 37.8327C165.582 41.6087 164.206 46.7607 162.926 53.2887C161.646 59.8167 160.686 66.9527 160.046 74.6967C164.27 66.9527 167.63 60.1367 170.126 54.2487C172.686 48.2967 173.966 43.0167 173.966 38.4087C173.966 36.3607 173.71 34.7927 173.198 33.7047C172.75 32.6167 172.11 32.0727 171.278 32.0727ZM166.286 103.113C168.27 103.113 170.03 102.281 171.566 100.617C173.102 98.9527 174.126 96.5527 174.638 93.4167C172.654 92.0727 171.118 90.3127 170.03 88.1367C169.006 85.9607 168.494 83.6567 168.494 81.2247C168.494 80.3287 168.622 79.1127 168.878 77.5767H168.59C165.966 77.5767 163.758 78.8887 161.966 81.5127C160.238 84.0727 159.374 87.5287 159.374 91.8807C159.374 95.5287 160.046 98.3127 161.39 100.233C162.798 102.153 164.43 103.113 166.286 103.113ZM241.037 83.3367C241.869 83.3367 242.509 83.7527 242.957 84.5847C243.405 85.4167 243.629 86.4727 243.629 87.7527C243.629 90.8247 242.701 92.6487 240.845 93.2247C237.005 94.5687 232.781 95.3367 228.173 95.5287C226.957 100.905 224.557 105.225 220.973 108.489C217.389 111.689 213.325 113.289 208.781 113.289C204.941 113.289 201.645 112.361 198.893 110.505C196.205 108.649 194.157 106.185 192.749 103.113C191.341 100.041 190.637 96.7127 190.637 93.1287C190.637 88.2647 191.565 83.9447 193.421 80.1687C195.277 76.3287 197.837 73.3527 201.101 71.2407C204.365 69.0647 207.981 67.9767 211.949 67.9767C216.813 67.9767 220.717 69.6727 223.661 73.0647C226.669 76.3927 228.429 80.5207 228.941 85.4487C231.949 85.2567 235.533 84.6167 239.693 83.5287C240.205 83.4007 240.653 83.3367 241.037 83.3367ZM209.549 103.113C211.597 103.113 213.357 102.281 214.829 100.617C216.365 98.9527 217.389 96.5527 217.901 93.4167C215.917 92.0727 214.381 90.3127 213.293 88.1367C212.269 85.9607 211.757 83.6567 211.757 81.2247C211.757 80.2007 211.853 79.1767 212.045 78.1527H211.565C209.005 78.1527 206.861 79.4007 205.133 81.8967C203.469 84.3287 202.637 87.7847 202.637 92.2647C202.637 95.7847 203.309 98.4727 204.653 100.329C206.061 102.185 207.693 103.113 209.549 103.113ZM245.181 113.289C242.301 113.289 239.933 111.977 238.077 109.353C236.285 106.665 235.389 103.337 235.389 99.3687C235.389 94.5687 235.709 90.1847 236.349 86.2167C236.989 82.1847 238.045 77.9287 239.517 73.4487C240.157 71.5287 241.053 70.1527 242.205 69.3207C243.357 68.4887 245.181 68.0727 247.677 68.0727C249.085 68.0727 250.045 68.2967 250.557 68.7447C251.133 69.1927 251.421 69.8647 251.421 70.7607C251.421 71.2727 251.069 73.0007 250.365 75.9447C249.725 78.3127 249.213 80.4567 248.829 82.3767C247.549 89.0967 246.909 93.5767 246.909 95.8167C246.909 97.1607 247.069 98.1207 247.389 98.6967C247.709 99.2087 248.221 99.4647 248.925 99.4647C249.885 99.4647 251.069 98.5047 252.477 96.5847C253.949 94.6647 255.485 91.7527 257.085 87.8487C258.749 83.9447 260.349 79.1447 261.885 73.4487C262.397 71.5287 263.165 70.1527 264.189 69.3207C265.277 68.4887 266.877 68.0727 268.989 68.0727C270.461 68.0727 271.485 68.2647 272.061 68.6487C272.637 68.9687 272.925 69.6087 272.925 70.5687C272.925 72.1687 272.125 76.5527 270.525 83.7207C268.733 91.9127 267.837 96.9687 267.837 98.8887C267.837 100.105 268.093 101.065 268.605 101.769C269.117 102.409 269.789 102.729 270.621 102.729C271.901 102.729 273.405 101.961 275.133 100.425C276.925 98.8247 279.293 96.2647 282.237 92.7447C283.005 91.8487 283.869 91.4007 284.829 91.4007C285.661 91.4007 286.301 91.7847 286.749 92.5527C287.261 93.3207 287.517 94.3767 287.517 95.7207C287.517 98.2807 286.909 100.265 285.693 101.673C282.941 105.065 279.965 107.849 276.765 110.025C273.629 112.201 270.045 113.289 266.013 113.289C262.941 113.289 260.669 112.105 259.197 109.737C257.789 107.369 257.085 104.041 257.085 99.7527C255.997 104.105 254.365 107.465 252.189 109.833C250.013 112.137 247.677 113.289 245.181 113.289ZM295.573 77.1927C295.445 80.3927 295.381 82.8887 295.381 84.6807C295.381 89.2887 295.605 92.9047 296.053 95.5287C296.565 98.0887 297.365 99.9447 298.453 101.097C299.605 102.185 301.173 102.729 303.157 102.729C304.181 102.729 305.397 102.409 306.805 101.769C308.213 101.129 309.493 100.297 310.645 99.2727C311.349 98.6327 312.053 98.3127 312.757 98.3127C313.525 98.3127 314.133 98.7607 314.581 99.6567C315.093 100.489 315.349 101.513 315.349 102.729C315.349 103.945 315.093 105.129 314.581 106.281C314.133 107.433 313.429 108.393 312.469 109.161C309.141 111.913 305.365 113.289 301.141 113.289C295.061 113.289 290.613 110.761 287.797 105.705C284.981 100.585 283.573 93.9287 283.573 85.7367C283.573 82.9207 283.669 80.0727 283.861 77.1927H280.117C278.197 77.1927 276.885 76.8407 276.181 76.1367C275.541 75.4327 275.221 74.3127 275.221 72.7767C275.221 69.1927 276.661 67.4007 279.541 67.4007H285.013C286.101 60.3607 287.765 53.9287 290.005 48.1047C292.245 42.2807 294.933 37.6407 298.069 34.1847C301.269 30.7287 304.693 29.0007 308.341 29.0007C311.029 29.0007 313.141 30.1847 314.677 32.5527C316.213 34.9207 316.981 37.8967 316.981 41.4807C316.981 51.4007 312.821 60.0407 304.501 67.4007H315.253C316.277 67.4007 317.013 67.6247 317.461 68.0727C317.909 68.5207 318.133 69.3527 318.133 70.5687C318.133 74.9847 314.517 77.1927 307.285 77.1927H295.573ZM305.749 38.2167C304.789 38.2167 303.701 39.4327 302.485 41.8647C301.333 44.2327 300.213 47.5607 299.125 51.8487C298.101 56.0727 297.237 60.7767 296.533 65.9607C300.309 62.6967 303.125 59.0487 304.981 55.0167C306.901 50.9207 307.861 47.2087 307.861 43.8807C307.861 40.1047 307.157 38.2167 305.749 38.2167ZM372.06 113.289C366.684 113.289 362.62 111.817 359.868 108.873C357.116 105.865 355.74 101.865 355.74 96.8727C355.74 94.0567 356.156 90.6327 356.988 86.6007L362.94 59.1447C363.068 58.6327 363.356 57.2247 363.804 54.9207C364.316 52.6167 364.572 50.1207 364.572 47.4327C364.572 45.8967 364.252 44.7447 363.612 43.9767C363.036 43.2087 362.236 42.8247 361.212 42.8247C359.292 42.8247 357.052 43.7527 354.492 45.6087C351.932 47.4007 349.244 50.1847 346.428 53.9607C345.532 55.1767 344.54 55.7847 343.452 55.7847C342.556 55.7847 341.756 55.3687 341.052 54.5367C340.412 53.6407 340.091 52.6487 340.091 51.5607C340.091 49.5767 340.988 47.3367 342.78 44.8407C349.308 35.8807 356.956 31.4007 365.724 31.4007C369.628 31.4007 372.668 32.5847 374.844 34.9527C377.084 37.3207 378.204 40.8087 378.204 45.4167C378.204 48.6807 377.98 51.6887 377.532 54.4407C377.084 57.1927 376.316 60.9367 375.228 65.6727L371.292 83.2407C371.164 83.8167 370.94 84.8407 370.62 86.3127C370.3 87.7847 370.044 89.1927 369.852 90.5367C369.66 91.8167 369.564 93.0967 369.564 94.3767C369.564 96.4247 370.14 98.0567 371.292 99.2727C372.444 100.489 374.076 101.097 376.188 101.097C380.028 101.097 383.9 99.0487 387.804 94.9527C391.772 90.8567 395.42 84.2647 398.748 75.1767C402.14 66.0247 404.764 54.3447 406.62 40.1367C407.068 36.8727 407.708 34.6007 408.54 33.3207C409.436 32.0407 411.132 31.4007 413.628 31.4007C415.868 31.4007 417.532 32.0727 418.62 33.4167C419.708 34.7607 420.252 36.9367 420.252 39.9447C420.252 41.6727 420.028 43.9447 419.58 46.7607C419.196 49.5767 418.588 53.5127 417.756 58.5687C416.028 68.3607 414.652 77.3527 413.628 85.5447C413.116 89.2567 412.86 92.0087 412.86 93.8007C412.86 96.4247 413.436 98.4407 414.588 99.8487C415.804 101.193 417.404 101.865 419.388 101.865C421.5 101.865 423.548 101.161 425.532 99.7527C427.58 98.3447 429.98 96.0087 432.732 92.7447C433.5 91.8487 434.364 91.4007 435.324 91.4007C436.156 91.4007 436.796 91.7847 437.244 92.5527C437.756 93.3207 438.012 94.3767 438.012 95.7207C438.012 98.2167 437.404 100.201 436.188 101.673C432.86 105.705 429.564 108.649 426.3 110.505C423.036 112.361 419.612 113.289 416.028 113.289C410.716 113.289 406.652 111.945 403.836 109.257C401.02 106.505 399.612 102.953 399.612 98.6007C399.612 96.1687 400.124 91.4327 401.148 84.3927C397.948 93.8007 393.884 100.969 388.956 105.897C384.092 110.825 378.46 113.289 372.06 113.289ZM448.058 115.401C444.73 115.401 442.17 114.633 440.378 113.097C438.65 111.561 437.786 109.833 437.786 107.913C437.786 106.249 438.394 104.809 439.61 103.593C440.826 102.377 442.618 101.769 444.986 101.769C445.818 101.769 446.778 101.865 447.866 102.057C449.018 102.185 449.882 102.281 450.458 102.345C450.394 100.681 450.01 99.1127 449.306 97.6407C448.666 96.1687 447.834 94.7607 446.81 93.4167C445.786 92.0087 444.826 90.7927 443.93 89.7687C441.946 93.5447 439.962 96.6807 437.978 99.1767C436.058 101.673 433.946 104.041 431.642 106.281C430.49 107.433 429.274 108.009 427.994 108.009C426.97 108.009 426.138 107.657 425.498 106.953C424.858 106.185 424.538 105.257 424.538 104.169C424.538 102.889 424.986 101.705 425.882 100.617L427.13 99.0807C430.65 94.7287 433.306 91.1447 435.098 88.3287C436.25 86.4727 437.402 84.2647 438.554 81.7047C439.77 79.1447 441.338 75.6567 443.258 71.2407C444.474 68.4247 447.002 67.0167 450.842 67.0167C452.634 67.0167 453.882 67.1767 454.586 67.4967C455.29 67.8167 455.642 68.3287 455.642 69.0327C455.642 69.4167 455.514 70.0247 455.258 70.8567C455.002 71.6887 454.65 72.5207 454.202 73.3527C453.05 75.6567 452.474 77.6087 452.474 79.2087C452.474 80.1687 452.794 81.2247 453.434 82.3767C454.138 83.5287 455.194 84.9687 456.602 86.6967C458.65 89.3847 460.186 91.6887 461.21 93.6087C462.298 95.4647 462.842 97.5127 462.842 99.7527C462.842 102.441 462.202 105.001 460.922 107.433C459.706 109.801 457.978 111.721 455.738 113.193C453.498 114.665 450.938 115.401 448.058 115.401Z" fill="white"/>
</g>
<defs>
<filter id="filter0_d_85_6955" x="68.001" y="22.5687" width="398.841" height="100.832" filterUnits="userSpaceOnUse" color-interpolation-filters="sRGB">
<feFlood flood-opacity="0" result="BackgroundImageFix"/>
<feColorMatrix in="SourceAlpha" type="matrix" values="0 0 0 0 0 0 0 0 0 0 0 0 0 0 0 0 0 0 127 0" result="hardAlpha"/>
<feOffset dy="4"/>
<feGaussianBlur stdDeviation="2"/>
<feComposite in2="hardAlpha" operator="out"/>
<feColorMatrix type="matrix" values="0 0 0 0 0 0 0 0 0 0 0 0 0 0 0 0 0 0 0.25 0"/>
<feBlend mode="normal" in2="BackgroundImageFix" result="effect1_dropShadow_85_6955"/>
<feBlend mode="normal" in="SourceGraphic" in2="effect1_dropShadow_85_6955" result="shape"/>
</filter>
</defs>
</svg>
